:SAMPLES-PER-SECOND 24
:FULLY-SPECIFIED
:DEGREES
254
root  -4.18388 34.9098 13.1829 77.9976 86.1795 78.2616
RightUpLeg  -40.7378 -13.9522 -0.048066
RightLeg  64.3458 1.13275 2.032
RightFoot  -8.66929 -0.00248983 -2.50382
RightToes  -1.46215e-006 3.27826e-006 1.63871e-007
Spine  2.99187 -1.55231 -14.9609
Spine1  9.12024 -4.89289 10.6001
HEad  -17.2779 12.0217 -7.50296
LeftShoulder1  1.633 -3.14869 -17.9431
LeftArm  13.1629 18.3343 -18.2111
LeftForeArm  19.5955 -12.4675 -10.0352
LeftHand  -0.225077 4.00372 18.2161
RightShoulder  3.01186 5.12655 28.9726
RightArm  -22.9242 -15.3701 17.2062
RightForeArm  17.2731 5.14864 9.85538
RightHand  -1.1912 3.2705 -16.1179
LeftUpLeg  -12.3393 17.269 -7.34919
LeftLeg  51.7476 9.82236 13.6043
LeftFoot  -34.3719 -0.972575 -5.76557
LeftToes  1.24762e-006 1.46925e-008 1.29056e-009
255
root  -2.73736 35.9157 13.2749 29.5303 83.2254 32.5325
RightUpLeg  -31.3959 -14.4307 0.346461
RightLeg  57.7395 1.36299 1.89776
RightFoot  -11.3054 -0.0764711 -4.45754
RightToes  -1.46215e-006 3.27826e-006 1.63871e-007
Spine  -1.57062 -1.81012 -11.695
Spine1  11.4383 -4.32096 7.64127
HEad  -11.2238 16.3827 -7.96564
LeftShoulder1  1.66029 -3.22876 -18.0689
LeftArm  13.7143 20.418 -18.6216
LeftForeArm  19.0206 -11.4382 -10.737
LeftHand  -0.201028 4.11275 17.5361
RightShoulder  3.05353 5.16494 29.3063
RightArm  -21.2828 -14.6931 16.4839
RightForeArm  19.1554 3.82909 9.942
RightHand  -0.921997 2.08312 -14.4346
LeftUpLeg  -2.93467 21.4494 -4.44621
LeftLeg  44.7949 10.4972 11.389
LeftFoot  -31.65 -1.43635 -9.02072
LeftToes  1.24762e-006 1.46925e-008 1.29056e-009
256
root  -1.33333 36.9538 13.4599 13.455 78.013 20.1051
RightUpLeg  -20.0031 -12.0413 -1.39855
RightLeg  49.2074 3.31646 3.77641
RightFoot  -13.8347 -0.19776 -4.79055
RightToes  -1.46215e-006 3.27826e-006 1.63871e-007
Spine  -5.22572 -1.54336 -8.96958
Spine1  13.6092 -3.52769 5.52607
HEad  -4.12538 21.6176 -8.35639
LeftShoulder1  1.82211 -3.5464 -19.3436
LeftArm  18.3729 25.1551 -18.6458
LeftForeArm  14.8508 -13.1513 -10.2231
LeftHand  -0.145464 4.56738 19.4863
RightShoulder  3.05927 5.20194 29.2205
RightArm  -19.5905 -12.274 15.5771
RightForeArm  20.7282 1.78019 10.1172
RightHand  -0.851592 1.51478 -14.4316
LeftUpLeg  2.35177 22.1376 -3.14178
LeftLeg  45.7862 12.789 14.1186
LeftFoot  -19.3698 -0.752029 -12.3269
LeftToes  1.24762e-006 1.46925e-008 1.29056e-009
257
root  -0.459023 37.8535 13.67 9.31694 73.973 19.5365
RightUpLeg  -10.1061 -8.23727 -3.26767
RightLeg  40.5276 5.07427 4.383
RightFoot  -14.5694 -0.229979 -4.6649
RightToes  -1.46215e-006 3.27826e-006 1.63871e-007
Spine  -6.52985 -1.04224 -7.22081
Spine1  16.1165 -2.59489 4.4992
HEad  0.730467 24.6275 -8.71738
LeftShoulder1  2.00639 -3.74839 -21.2959
LeftArm  22.8991 28.576 -19.1709
LeftForeArm  10.1994 -15.9081 -8.79178
LeftHand  -0.129481 4.70394 20.8349
RightShoulder  3.0331 5.19246 28.9516
RightArm  -17.7449 -8.36555 15.6652
RightForeArm  21.3076 2.07593 10.7593
RightHand  -0.960346 1.92856 -15.3564
LeftUpLeg  -3.33116 18.2414 -4.80413
LeftLeg  58.2266 9.75757 16.6633
LeftFoot  7.06186 1.5206 -10.0647
LeftToes  1.24762e-006 1.46925e-008 1.29056e-009
258
root  -0.0323412 38.264 13.6919 3.06186 71.6228 16.5286
RightUpLeg  -3.46552 -6.41699 -3.3976
RightLeg  35.6893 6.06936 4.42372
RightFoot  -14.5086 -0.212523 -4.19305
RightToes  -1.46215e-006 3.27826e-006 1.63871e-007
Spine  -5.83291 -0.59735 -1.44943
Spine1  19.0448 -0.433285 2.12668
HEad  4.35458 25.1196 -8.36224
LeftShoulder1  2.17185 -3.8921 -23.0958
LeftArm  25.9612 28.7832 -20.4105
LeftForeArm  8.1698 -16.87 -8.36147
LeftHand  -0.175508 4.4103 19.9999
RightShoulder  3.11793 5.28968 29.5439
RightArm  -18.3889 -2.14918 16.7271
RightForeArm  22.0177 0.817052 10.6653
RightHand  -0.953017 1.84821 -15.3999
LeftUpLeg  -16.7539 14.1718 -4.03627
LeftLeg  75.095 1.48444 6.45841
LeftFoot  29.1132 2.36596 -6.79418
LeftToes  1.24762e-006 1.46925e-008 1.29056e-009
259
root  0.385572 38.9484 13.609 2.48164 68.347 20.8276
RightUpLeg  4.26915 -5.39036 -7.09282
RightLeg  30.6522 8.89004 5.39132
RightFoot  -12.6374 -0.121697 -3.03757
RightToes  -1.46215e-006 3.27826e-006 1.63871e-007
Spine  -2.7817 0.364735 1.98392
Spine1  21.1681 2.44497 -2.71658
HEad  7.42237 25.1987 -7.55926
LeftShoulder1  2.35899 -4.12758 -24.7222
LeftArm  29.2117 28.608 -21.8577
LeftForeArm  5.78836 -18.2157 -7.57343
LeftHand  -0.225592 4.06507 19.1623
RightShoulder  3.37092 5.60773 31.1039
RightArm  -18.827 6.0078 18.1692
RightForeArm  22.67 -0.791324 10.7026
RightHand  -0.9856 2.07463 -15.4523
LeftUpLeg  -31.9742 13.3347 -3.03984
LeftLeg  90.1653 -0.130534 -3.10092
LeftFoot  33.3788 3.40772 -8.79711
LeftToes  1.24762e-006 1.46925e-008 1.29056e-009
